<?xml version="1.0" encoding="UTF-8"?>
<!DOCTYPE svg PUBLIC "-//W3C//DTD SVG 1.1//EN" "http://www.w3.org/Graphics/SVG/1.1/DTD/svg11.dtd">
<svg className="dark:text-textMainDark stroke-textMainDark" xmlns="http://www.w3.org/2000/svg" version="1.1" width="345px" height="378px" style="shape-rendering:geometricPrecision; text-rendering:geometricPrecision; image-rendering:optimizeQuality; fill-rule:evenodd; clip-rule:evenodd" xmlns:xlink="http://www.w3.org/1999/xlink">
<g><path stroke="#E8E8E6" style="opacity:0.992" fill="#E8E8E6" d="M 1.5,0.5 C 8.52706,8.19373 15.8604,15.5271 23.5,22.5C 23.427,24.0269 24.0937,25.0269 25.5,25.5C 63.5567,62.7197 101.723,100.386 140,138.5C 139.729,95.5301 139.729,52.5301 140,9.5C 148.351,8.73332 156.518,8.73332 164.5,9.5C 164.5,66.5 164.5,123.5 164.5,180.5C 109.5,180.5 54.5,180.5 -0.5,180.5C -0.5,172.167 -0.5,163.833 -0.5,155.5C 14.2488,155.368 28.9155,155.535 43.5,156C 29.6527,141.986 15.6527,128.153 1.5,114.5C 0.500148,82.8403 0.166814,51.1737 0.5,19.5C 0.176503,12.9779 0.509836,6.6446 1.5,0.5 Z M 24.5,60.5 C 57.1015,91.9872 88.9348,123.987 120,156.5C 106.229,155.841 92.3961,155.175 78.5,154.5C 60.9549,137.456 43.4549,120.123 26,102.5C 24.5528,88.5729 24.0528,74.5729 24.5,60.5 Z"/></g>
<g><path stroke="#E8E8E6" style="opacity:0.995" fill="#E8E8E6" d="M 342.5,7.5 C 343.161,48.5137 342.494,89.1804 340.5,129.5C 334.158,126.332 328.158,122.665 322.5,118.5C 322.027,117.094 321.027,116.427 319.5,116.5C 318.883,116.389 318.383,116.056 318,115.5C 317.175,96.9265 317.341,78.4265 318.5,60C 317.874,59.2496 317.374,58.4162 317,57.5C 284.644,91.1893 251.811,124.023 218.5,156C 260.445,155.517 302.445,155.35 344.5,155.5C 344.5,164.167 344.5,172.833 344.5,181.5C 289.167,181.5 233.833,181.5 178.5,181.5C 178.5,173.167 178.5,164.833 178.5,156.5C 179.499,108.003 179.832,59.3362 179.5,10.5C 187.167,10.5 194.833,10.5 202.5,10.5C 202.168,26.9116 202.501,42.5783 203.5,57.5C 219.55,40.9488 235.883,24.4488 252.5,8C 282.498,7.50002 312.498,7.33335 342.5,7.5 Z M 290.5,48.5 C 288.5,49.8333 286.833,51.5 285.5,53.5C 270.221,69.4459 254.554,85.1126 238.5,100.5C 236.5,101.833 234.833,103.5 233.5,105.5C 223.199,114.968 213.366,124.968 204,135.5C 203.034,120.74 203.367,106.073 205,91.5C 224.473,72.027 243.973,52.527 263.5,33C 277.833,32.3333 292.167,32.3333 306.5,33C 301.242,38.4211 295.908,43.5877 290.5,48.5 Z"/></g>
<g><path stroke="#E8E8E6" style="opacity:0.183" fill="##E8E8E6" d="M -0.5,-0.5 C 0.166667,-0.5 0.833333,-0.5 1.5,-0.5C 1.5,-0.166667 1.5,0.166667 1.5,0.5C 0.509836,6.6446 0.176503,12.9779 0.5,19.5C 0.166667,19.5 -0.166667,19.5 -0.5,19.5C -0.5,12.8333 -0.5,6.16667 -0.5,-0.5 Z"/></g>
<g><path style="opacity:0.173" fill="#a4a2a2" d="M 23.5,22.5 C 24.9063,22.9731 25.573,23.9731 25.5,25.5C 24.0937,25.0269 23.427,24.0269 23.5,22.5 Z"/></g>
<g><path stroke="#E8E8E6" style="opacity:0.569" fill="#E8E8E6" d="M 290.5,48.5 C 289.833,51.1667 288.167,52.8333 285.5,53.5C 286.833,51.5 288.5,49.8333 290.5,48.5 Z"/></g>
<g><path stroke="#E8E8E6" style="opacity:1" fill="#E8E8E6" d="M 203.5,57.5 C 202.501,42.5783 202.168,26.9116 202.5,10.5C 194.833,10.5 187.167,10.5 179.5,10.5C 179.832,59.3362 179.499,108.003 178.5,156.5C 178.333,107.499 178.5,58.4989 179,9.5C 187.424,8.65579 195.758,8.65579 204,9.5C 203.977,25.4937 203.81,41.4937 203.5,57.5 Z"/></g>
<g><path stroke="#E8E8E6" style="opacity:0.6" fill="#E8E8E6" d="M 342.5,7.5 C 343.499,46.3298 343.832,85.3298 343.5,124.5C 343.975,127.082 343.308,129.082 341.5,130.5C 340.833,130.5 340.5,130.167 340.5,129.5C 342.494,89.1804 343.161,48.5137 342.5,7.5 Z"/></g>
<g><path stroke="#E8E8E6" style="opacity:0.549" fill="#E8E8E6" d="M 238.5,100.5 C 237.833,103.167 236.167,104.833 233.5,105.5C 234.833,103.5 236.5,101.833 238.5,100.5 Z"/></g>
<g><path stroke="#E8E8E6" style="opacity:0.184" fill="#E8E8E6" d="M 164.5,9.5 C 165.499,66.6642 165.832,123.998 165.5,181.5C 161.833,181.5 158.167,181.5 154.5,181.5C 150.833,181.5 147.167,181.5 143.5,181.5C 95.5,181.5 47.5,181.5 -0.5,181.5C -0.5,181.167 -0.5,180.833 -0.5,180.5C 54.5,180.5 109.5,180.5 164.5,180.5C 164.5,123.5 164.5,66.5 164.5,9.5 Z"/></g>
<g><path stroke="#E8E8E6" style="opacity:0.118" fill="#E8E8E6" d="M 319.5,116.5 C 321.027,116.427 322.027,117.094 322.5,118.5C 320.973,118.573 319.973,117.906 319.5,116.5 Z"/></g>
<g><path stroke="#E8E8E6" style="opacity:0.307" fill="#E8E8E6" d="M 343.5,124.5 C 343.833,124.5 344.167,124.5 344.5,124.5C 344.5,126.833 344.5,129.167 344.5,131.5C 343.209,131.737 342.209,131.404 341.5,130.5C 343.308,129.082 343.975,127.082 343.5,124.5 Z"/></g>
<g><path stroke="#E8E8E6" style="opacity:0.72" fill="#E8E8E6" d="M 143.5,181.5 C 147.167,181.5 150.833,181.5 154.5,181.5C 154.714,183.144 154.38,184.644 153.5,186C 150.122,186.048 146.789,185.548 143.5,184.5C 143.5,183.5 143.5,182.5 143.5,181.5 Z"/></g>
<g><path stroke="#E8E8E6" style="opacity:0.251" fill="#E8E8E6" d="M 183.5,194.5 C 181.833,194.5 180.167,194.5 178.5,194.5C 179.868,185.358 185.201,182.191 194.5,185C 197.612,186.306 200.779,187.472 204,188.5C 207.949,186.894 212.116,185.894 216.5,185.5C 231.467,187.739 246.467,188.905 261.5,189C 243.796,189.307 226.129,190.141 208.5,191.5C 206.726,191.113 205.059,190.447 203.5,189.5C 197.006,192.454 190.339,194.121 183.5,194.5 Z"/></g>
<g><path stroke="#E8E8E6" style="opacity:0.008" fill="#E8E8E6" d="M 164.5,367.5 C 164.5,309.833 164.5,252.167 164.5,194.5C 160.833,194.5 157.167,194.5 153.5,194.5C 152.263,192.903 150.596,191.737 148.5,191C 151.244,189.309 154.077,187.809 157,186.5C 159.285,188.948 161.785,191.281 164.5,193.5C 165.831,251.665 165.831,309.665 164.5,367.5 Z"/></g>
<g><path stroke="#E8E8E6" style="opacity:0.991" fill="#E8E8E6" d="M -0.5,193.5 C 51.0113,194.497 102.345,194.83 153.5,194.5C 157.167,194.5 160.833,194.5 164.5,194.5C 164.5,252.167 164.5,309.833 164.5,367.5C 156.432,368.828 148.265,368.828 140,367.5C 139.551,351.374 139.385,335.374 139.5,319.5C 122.265,337.569 104.598,355.069 86.5,372C 57.5019,372.5 28.5019,372.667 -0.5,372.5C -0.5,363.5 -0.5,354.5 -0.5,345.5C -0.16458,313.32 0.83542,281.32 2.5,249.5C 10.143,253.563 17.3096,258.229 24,263.5C 23.2609,282.486 23.4276,301.486 24.5,320.5C 57.5811,286.752 90.9145,253.419 124.5,220.5C 82.8149,219.189 41.1483,219.189 -0.5,220.5C -0.5,211.5 -0.5,202.5 -0.5,193.5 Z M 138.5,241.5 C 139.83,247.798 140.497,254.465 140.5,261.5C 140.333,268.167 140.167,274.833 140,281.5C 139.5,282.5 139,283.5 138.5,284.5C 117.543,304.622 97.2101,325.122 77.5,346C 63.6342,346.192 49.8009,346.692 36,347.5C 35.5,347.167 35,346.833 34.5,346.5C 69.9919,312.01 104.659,277.01 138.5,241.5 Z"/></g>
<g><path stroke="#E8E8E6" style="opacity:0.994" fill="#E8E8E6" d="M 178.5,194.5 C 180.167,194.5 181.833,194.5 183.5,194.5C 190.167,194.5 196.833,194.5 203.5,194.5C 249.997,195.499 296.664,195.832 343.5,195.5C 343.5,203.167 343.5,210.833 343.5,218.5C 327.83,218.333 312.163,218.5 296.5,219C 297.044,219.717 297.711,220.217 298.5,220.5C 313.5,234.833 328.167,249.5 342.5,264.5C 342.5,302.167 342.5,339.833 342.5,377.5C 341.833,377.5 341.167,377.5 340.5,377.5C 295.665,331.329 250.331,285.329 204.5,239.5C 204.44,238.957 204.107,238.624 203.5,238.5C 202.5,281.495 202.167,324.495 202.5,367.5C 194.5,367.5 186.5,367.5 178.5,367.5C 178.5,309.833 178.5,252.167 178.5,194.5 Z M 220.5,219.5 C 234.931,219.034 249.264,219.534 263.5,221C 281.333,238.833 299.167,256.667 317,274.5C 317.422,288.865 317.755,303.198 318,317.5C 285.305,284.971 252.805,252.305 220.5,219.5 Z"/></g>
<g><path stroke="#E8E8E6" style="opacity:0.384" fill="#E8E8E6" d="M 203.5,194.5 C 250.5,194.5 297.5,194.5 344.5,194.5C 344.5,203.167 344.5,211.833 344.5,220.5C 329.027,219.207 313.693,219.207 298.5,220.5C 297.711,220.217 297.044,219.717 296.5,219C 312.163,218.5 327.83,218.333 343.5,218.5C 343.5,210.833 343.5,203.167 343.5,195.5C 296.664,195.832 249.997,195.499 203.5,194.5 Z"/></g>
<g><path stroke="#E8E8E6" style="opacity:0.983" fill="#E8E8E6" d="M -0.5,247.5 C 0.709515,247.932 1.70951,248.599 2.5,249.5C 0.83542,281.32 -0.16458,313.32 -0.5,345.5C -0.5,312.833 -0.5,280.167 -0.5,247.5 Z"/></g>
<g><path stroke="#E8E8E6" style="opacity:0.608" fill="#E8E8E6" d="M 342.5,264.5 C 343.167,300.167 343.833,335.833 344.5,371.5C 344.5,373.5 344.5,375.5 344.5,377.5C 343.833,377.5 343.167,377.5 342.5,377.5C 342.5,339.833 342.5,302.167 342.5,264.5 Z"/></g>
<g><path stroke="#E8E8E6" style="opacity:0.318" fill="#E8E8E6" d="M 204.5,239.5 C 203.363,282.026 203.197,324.692 204,367.5C 195.402,368.828 186.902,368.828 178.5,367.5C 186.5,367.5 194.5,367.5 202.5,367.5C 202.167,324.495 202.5,281.495 203.5,238.5C 204.107,238.624 204.44,238.957 204.5,239.5 Z"/></g>
</svg>
